<mxfile host="Electron" modified="2023-06-08T17:50:57.947Z" agent="Mozilla/5.0 (Windows NT 10.0; Win64; x64) AppleWebKit/537.36 (KHTML, like Gecko) draw.io/21.2.8 Chrome/112.0.5615.165 Electron/24.2.0 Safari/537.36" etag="oNKcNFLfo-H4Lgu3X_q-" version="21.2.8" type="device">
  <diagram name="Page-1" id="9fipPSlpoG63SHbkXQLO">
    <mxGraphModel dx="2254" dy="854" grid="1" gridSize="10" guides="1" tooltips="1" connect="1" arrows="1" fold="1" page="1" pageScale="1" pageWidth="850" pageHeight="1100" math="0" shadow="0">
      <root>
        <mxCell id="0" />
        <mxCell id="1" parent="0" />
        <mxCell id="7yZCWfheSbmN9bUJrP2g-1" value="&lt;font style=&quot;font-size: 14px;&quot; face=&quot;Times New Roman&quot;&gt;&lt;b&gt;CHỨC VỤ&lt;/b&gt;&lt;/font&gt;" style="rounded=0;whiteSpace=wrap;html=1;" parent="1" vertex="1">
          <mxGeometry x="90" y="30" width="120" height="50" as="geometry" />
        </mxCell>
        <mxCell id="7yZCWfheSbmN9bUJrP2g-2" value="&lt;font style=&quot;font-size: 14px;&quot; face=&quot;Times New Roman&quot;&gt;&lt;b&gt;CA LÀM&lt;/b&gt;&lt;/font&gt;" style="rounded=0;whiteSpace=wrap;html=1;" parent="1" vertex="1">
          <mxGeometry x="90" y="430" width="120" height="50" as="geometry" />
        </mxCell>
        <mxCell id="7yZCWfheSbmN9bUJrP2g-3" value="&lt;font style=&quot;font-size: 14px;&quot; face=&quot;Times New Roman&quot;&gt;&lt;b&gt;QUYỀN(ROLE)&lt;/b&gt;&lt;/font&gt;" style="rounded=0;whiteSpace=wrap;html=1;" parent="1" vertex="1">
          <mxGeometry x="360" y="20" width="120" height="50" as="geometry" />
        </mxCell>
        <mxCell id="7yZCWfheSbmN9bUJrP2g-4" value="&lt;font style=&quot;font-size: 14px;&quot; face=&quot;Times New Roman&quot;&gt;&lt;b&gt;NHÂN VIÊN&lt;/b&gt;&lt;/font&gt;" style="rounded=0;whiteSpace=wrap;html=1;" parent="1" vertex="1">
          <mxGeometry x="90" y="200" width="120" height="50" as="geometry" />
        </mxCell>
        <mxCell id="7yZCWfheSbmN9bUJrP2g-6" value="&lt;font style=&quot;font-size: 14px;&quot; face=&quot;Times New Roman&quot;&gt;&lt;b&gt;TÀI KHOẢN&lt;/b&gt;&lt;/font&gt;" style="rounded=0;whiteSpace=wrap;html=1;" parent="1" vertex="1">
          <mxGeometry x="360" y="200" width="120" height="50" as="geometry" />
        </mxCell>
        <mxCell id="7yZCWfheSbmN9bUJrP2g-10" value="&lt;font style=&quot;font-size: 14px;&quot; face=&quot;Times New Roman&quot;&gt;&lt;b&gt;THƯỞNG PHẠT&lt;/b&gt;&lt;/font&gt;" style="rounded=0;whiteSpace=wrap;html=1;" parent="1" vertex="1">
          <mxGeometry x="-200" y="237.5" width="120" height="50" as="geometry" />
        </mxCell>
        <mxCell id="7yZCWfheSbmN9bUJrP2g-11" value="&lt;font style=&quot;font-size: 14px;&quot; face=&quot;Times New Roman&quot;&gt;&lt;b&gt;BẢNG LƯƠNG&lt;/b&gt;&lt;/font&gt;" style="rounded=0;whiteSpace=wrap;html=1;" parent="1" vertex="1">
          <mxGeometry x="-190" y="140" width="120" height="50" as="geometry" />
        </mxCell>
        <mxCell id="7yZCWfheSbmN9bUJrP2g-13" style="edgeStyle=orthogonalEdgeStyle;rounded=0;orthogonalLoop=1;jettySize=auto;html=1;fontFamily=Times New Roman;fontSize=14;endArrow=ERoneToMany;endFill=0;" parent="1" source="7yZCWfheSbmN9bUJrP2g-12" target="7yZCWfheSbmN9bUJrP2g-4" edge="1">
          <mxGeometry relative="1" as="geometry">
            <Array as="points">
              <mxPoint x="150" y="170" />
              <mxPoint x="150" y="170" />
            </Array>
          </mxGeometry>
        </mxCell>
        <mxCell id="7yZCWfheSbmN9bUJrP2g-14" style="edgeStyle=orthogonalEdgeStyle;rounded=0;orthogonalLoop=1;jettySize=auto;html=1;fontFamily=Times New Roman;fontSize=14;endArrow=ERmandOne;endFill=0;" parent="1" source="7yZCWfheSbmN9bUJrP2g-12" target="7yZCWfheSbmN9bUJrP2g-1" edge="1">
          <mxGeometry relative="1" as="geometry" />
        </mxCell>
        <mxCell id="7yZCWfheSbmN9bUJrP2g-12" value="&lt;b&gt;có&lt;/b&gt;" style="rhombus;whiteSpace=wrap;html=1;fontFamily=Times New Roman;fontSize=14;" parent="1" vertex="1">
          <mxGeometry x="100" y="110" width="100" height="50" as="geometry" />
        </mxCell>
        <mxCell id="hTNUCMuLaFJozT11vPmb-4" style="edgeStyle=orthogonalEdgeStyle;rounded=0;orthogonalLoop=1;jettySize=auto;html=1;endArrow=ERmandOne;endFill=0;exitX=0.5;exitY=0;exitDx=0;exitDy=0;" parent="1" source="8rnDcj-h05bXt1xN_f9y-1" target="7yZCWfheSbmN9bUJrP2g-3" edge="1">
          <mxGeometry relative="1" as="geometry">
            <mxPoint x="422.5" y="105" as="sourcePoint" />
          </mxGeometry>
        </mxCell>
        <mxCell id="7yZCWfheSbmN9bUJrP2g-25" style="edgeStyle=orthogonalEdgeStyle;rounded=0;orthogonalLoop=1;jettySize=auto;html=1;fontFamily=Times New Roman;fontSize=14;endArrow=ERoneToMany;endFill=0;" parent="1" target="7yZCWfheSbmN9bUJrP2g-4" edge="1">
          <mxGeometry relative="1" as="geometry">
            <Array as="points">
              <mxPoint x="150" y="290" />
              <mxPoint x="150" y="290" />
            </Array>
            <mxPoint x="150" y="300" as="sourcePoint" />
          </mxGeometry>
        </mxCell>
        <mxCell id="7yZCWfheSbmN9bUJrP2g-26" style="edgeStyle=orthogonalEdgeStyle;rounded=0;orthogonalLoop=1;jettySize=auto;html=1;fontFamily=Times New Roman;fontSize=14;endArrow=ERoneToMany;endFill=0;" parent="1" target="7yZCWfheSbmN9bUJrP2g-2" edge="1">
          <mxGeometry relative="1" as="geometry">
            <mxPoint x="150" y="360" as="sourcePoint" />
          </mxGeometry>
        </mxCell>
        <mxCell id="7yZCWfheSbmN9bUJrP2g-29" style="edgeStyle=orthogonalEdgeStyle;rounded=0;orthogonalLoop=1;jettySize=auto;html=1;fontFamily=Times New Roman;fontSize=14;endArrow=ERoneToMany;endFill=0;" parent="1" source="7yZCWfheSbmN9bUJrP2g-27" target="7yZCWfheSbmN9bUJrP2g-10" edge="1">
          <mxGeometry relative="1" as="geometry">
            <mxPoint x="-380" y="345" as="targetPoint" />
          </mxGeometry>
        </mxCell>
        <mxCell id="8rnDcj-h05bXt1xN_f9y-5" style="edgeStyle=orthogonalEdgeStyle;rounded=0;orthogonalLoop=1;jettySize=auto;html=1;endArrow=ERoneToMany;endFill=0;" edge="1" parent="1" source="7yZCWfheSbmN9bUJrP2g-27" target="7yZCWfheSbmN9bUJrP2g-4">
          <mxGeometry relative="1" as="geometry">
            <Array as="points">
              <mxPoint x="110" y="263" />
            </Array>
          </mxGeometry>
        </mxCell>
        <mxCell id="7yZCWfheSbmN9bUJrP2g-27" value="&lt;b&gt;chi tiết&lt;br&gt;thưởng phạt&lt;br&gt;&lt;/b&gt;" style="shape=associativeEntity;whiteSpace=wrap;html=1;align=center;fontFamily=Times New Roman;fontSize=14;" parent="1" vertex="1">
          <mxGeometry x="-50" y="230" width="110" height="65" as="geometry" />
        </mxCell>
        <mxCell id="7yZCWfheSbmN9bUJrP2g-34" style="edgeStyle=orthogonalEdgeStyle;rounded=0;orthogonalLoop=1;jettySize=auto;html=1;fontFamily=Times New Roman;fontSize=14;endArrow=ERmandOne;endFill=0;" parent="1" source="7yZCWfheSbmN9bUJrP2g-33" target="7yZCWfheSbmN9bUJrP2g-4" edge="1">
          <mxGeometry relative="1" as="geometry">
            <Array as="points">
              <mxPoint x="110" y="165" />
            </Array>
          </mxGeometry>
        </mxCell>
        <mxCell id="7yZCWfheSbmN9bUJrP2g-37" style="edgeStyle=orthogonalEdgeStyle;rounded=0;orthogonalLoop=1;jettySize=auto;html=1;fontFamily=Times New Roman;fontSize=14;endArrow=ERoneToMany;endFill=0;" parent="1" source="7yZCWfheSbmN9bUJrP2g-33" target="7yZCWfheSbmN9bUJrP2g-11" edge="1">
          <mxGeometry relative="1" as="geometry" />
        </mxCell>
        <mxCell id="7yZCWfheSbmN9bUJrP2g-33" value="&lt;b&gt;có&lt;/b&gt;" style="rhombus;whiteSpace=wrap;html=1;fontFamily=Times New Roman;fontSize=14;" parent="1" vertex="1">
          <mxGeometry x="-30" y="140" width="80" height="50" as="geometry" />
        </mxCell>
        <mxCell id="PlWcSYpRTfJBtQCtmOL1-4" style="edgeStyle=orthogonalEdgeStyle;rounded=0;orthogonalLoop=1;jettySize=auto;html=1;endArrow=ERmandOne;endFill=0;" parent="1" source="7yZCWfheSbmN9bUJrP2g-15" target="7yZCWfheSbmN9bUJrP2g-4" edge="1">
          <mxGeometry relative="1" as="geometry" />
        </mxCell>
        <mxCell id="PlWcSYpRTfJBtQCtmOL1-5" style="edgeStyle=orthogonalEdgeStyle;rounded=0;orthogonalLoop=1;jettySize=auto;html=1;endArrow=ERmandOne;endFill=0;" parent="1" source="7yZCWfheSbmN9bUJrP2g-15" target="7yZCWfheSbmN9bUJrP2g-6" edge="1">
          <mxGeometry relative="1" as="geometry" />
        </mxCell>
        <mxCell id="7yZCWfheSbmN9bUJrP2g-15" value="&lt;b&gt;thuộc&lt;/b&gt;" style="rhombus;whiteSpace=wrap;html=1;fontFamily=Times New Roman;fontSize=14;" parent="1" vertex="1">
          <mxGeometry x="240" y="200" width="100" height="50" as="geometry" />
        </mxCell>
        <mxCell id="8rnDcj-h05bXt1xN_f9y-3" style="edgeStyle=orthogonalEdgeStyle;rounded=0;orthogonalLoop=1;jettySize=auto;html=1;endArrow=ERoneToMany;endFill=0;" edge="1" parent="1" source="8rnDcj-h05bXt1xN_f9y-1" target="7yZCWfheSbmN9bUJrP2g-6">
          <mxGeometry relative="1" as="geometry" />
        </mxCell>
        <mxCell id="8rnDcj-h05bXt1xN_f9y-1" value="&lt;b&gt;có&lt;/b&gt;" style="rhombus;whiteSpace=wrap;html=1;fontFamily=Times New Roman;fontSize=14;" vertex="1" parent="1">
          <mxGeometry x="370" y="110" width="100" height="50" as="geometry" />
        </mxCell>
        <mxCell id="8rnDcj-h05bXt1xN_f9y-4" value="&lt;b&gt;chấm công&lt;br&gt;&lt;/b&gt;" style="shape=associativeEntity;whiteSpace=wrap;html=1;align=center;fontFamily=Times New Roman;fontSize=14;" vertex="1" parent="1">
          <mxGeometry x="95" y="305" width="110" height="65" as="geometry" />
        </mxCell>
      </root>
    </mxGraphModel>
  </diagram>
</mxfile>
